<svg id="svg" version="1.1" width="400" height="351.5695067264574" viewBox="0 0 400 351.5695067264574" xmlns="http://www.w3.org/2000/svg" xmlns:xlink="http://www.w3.org/1999/xlink"><g id="svgg"><path id="path0" d="M262.520 89.801 C 262.851 90.073,264.342 91.233,265.833 92.378 C 267.324 93.522,269.233 95.076,270.075 95.830 C 270.917 96.584,271.688 97.119,271.787 97.020 C 271.970 96.837,268.512 93.705,267.407 93.052 C 267.080 92.858,265.948 92.057,264.892 91.270 C 262.980 89.846,261.332 88.825,262.520 89.801 M176.869 101.826 C 175.950 102.874,175.198 103.888,175.198 104.079 C 175.198 104.271,175.076 104.480,174.928 104.544 C 174.780 104.609,174.066 105.476,173.342 106.472 L 172.025 108.283 173.174 108.024 C 175.554 107.487,176.231 106.694,177.978 102.402 C 179.193 99.415,179.049 99.340,176.869 101.826 M275.110 100.900 C 275.110 101.044,275.585 101.682,276.165 102.318 C 276.746 102.954,277.221 103.622,277.221 103.804 C 277.221 103.985,277.463 104.134,277.760 104.134 C 278.151 104.134,277.983 103.706,277.144 102.568 C 276.055 101.092,275.110 100.317,275.110 100.900 M280.718 108.383 C 281.290 109.172,281.940 110.370,282.163 111.045 C 282.755 112.838,282.908 112.298,282.342 110.416 C 282.077 109.535,281.471 108.395,280.995 107.881 C 279.696 106.479,279.542 106.759,280.718 108.383 M218.997 141.647 C 214.941 142.268,209.572 143.920,206.413 145.517 C 203.305 147.089,195.606 152.658,195.601 153.338 C 195.600 153.461,195.159 154.037,194.622 154.617 C 187.090 162.750,183.263 178.440,185.034 193.930 C 186.341 205.353,191.685 218.485,199.102 228.496 C 202.039 232.460,204.985 236.538,208.505 241.513 C 209.600 243.061,210.597 244.406,210.720 244.503 C 210.842 244.600,211.643 245.708,212.500 246.966 C 213.356 248.223,214.377 249.666,214.768 250.171 C 215.159 250.676,215.717 251.447,216.007 251.885 C 216.297 252.323,216.700 252.859,216.902 253.077 C 217.438 253.658,220.094 257.330,224.607 263.729 C 225.950 265.635,227.177 267.247,227.333 267.312 C 227.489 267.376,227.617 267.582,227.617 267.770 C 227.617 267.958,228.527 269.314,229.639 270.783 C 230.752 272.253,232.079 274.026,232.589 274.724 C 236.570 280.173,241.507 280.801,250.660 277.025 C 253.755 275.747,256.885 274.483,257.615 274.215 C 258.345 273.948,259.453 273.509,260.078 273.240 C 260.703 272.971,263.034 272.002,265.259 271.088 C 267.485 270.173,270.140 269.041,271.160 268.573 C 272.180 268.105,273.171 267.722,273.363 267.722 C 273.554 267.722,274.461 267.394,275.378 266.993 C 276.295 266.592,277.520 266.061,278.100 265.813 C 278.681 265.565,279.789 265.081,280.563 264.739 C 283.650 263.374,289.480 260.940,291.564 260.145 C 292.778 259.683,294.361 259.045,295.082 258.728 C 296.884 257.936,297.449 257.706,300.157 256.662 C 304.751 254.890,316.121 248.716,317.326 247.339 C 317.423 247.228,318.448 246.434,319.604 245.574 C 322.619 243.329,322.803 243.176,325.715 240.457 C 329.328 237.084,329.252 237.160,331.158 234.937 C 341.849 222.458,345.348 205.699,340.313 191.079 C 339.495 188.705,336.554 182.649,336.017 182.234 C 335.892 182.137,335.368 181.408,334.853 180.613 C 333.587 178.657,330.333 175.078,327.853 172.911 C 315.672 162.270,299.717 159.070,283.377 163.992 C 280.712 164.795,272.543 168.695,271.025 169.889 C 269.220 171.309,267.303 170.587,266.311 168.116 C 263.660 161.512,253.195 150.459,246.103 146.774 C 237.992 142.559,226.828 140.447,218.997 141.647 M173.785 174.230 C 173.485 178.881,173.411 182.699,173.625 182.499 C 173.780 182.354,173.896 181.167,173.884 179.860 C 173.872 178.554,174.052 177.010,174.284 176.429 C 174.736 175.300,174.651 174.142,174.117 174.142 C 173.937 174.142,173.788 174.182,173.785 174.230 M61.940 188.566 C 61.941 188.857,62.181 189.490,62.472 189.974 L 63.002 190.853 62.769 189.974 C 62.431 188.697,61.938 187.861,61.940 188.566 M64.384 194.262 C 64.392 195.041,66.731 198.882,66.966 198.502 C 67.087 198.306,66.966 197.962,66.697 197.739 C 66.428 197.515,66.110 196.943,65.991 196.468 C 65.871 195.992,65.609 195.602,65.408 195.602 C 65.207 195.602,65.140 195.444,65.259 195.251 C 65.379 195.057,65.300 194.899,65.084 194.899 C 64.867 194.899,64.781 194.751,64.893 194.571 C 65.004 194.391,64.934 194.144,64.737 194.023 C 64.541 193.901,64.382 194.009,64.384 194.262 M173.791 195.771 C 173.791 196.058,174.014 196.889,174.287 197.618 C 174.560 198.348,175.219 200.410,175.751 202.201 C 176.282 203.992,176.783 205.392,176.863 205.312 C 176.943 205.232,176.614 203.919,176.132 202.393 C 175.650 200.868,175.053 198.637,174.805 197.435 C 174.397 195.459,173.791 194.465,173.791 195.771 " stroke="none" fill="#eb4b4c" fill-rule="evenodd"></path><path id="path1" d="M220.756 79.204 C 212.593 79.909,204.208 82.304,196.822 86.042 C 190.804 89.087,178.910 98.295,178.781 100.008 C 178.736 100.599,177.213 104.382,176.529 105.599 C 175.822 106.860,174.688 107.613,172.559 108.238 C 171.359 108.590,170.302 110.050,167.055 115.834 C 164.061 121.170,162.734 121.807,159.456 119.484 C 158.536 118.832,157.071 117.904,156.201 117.421 C 155.330 116.938,154.048 116.204,153.352 115.788 C 141.409 108.665,120.723 105.235,106.245 107.977 C 98.926 109.363,85.950 114.502,83.126 117.132 C 82.700 117.529,82.242 117.854,82.109 117.854 C 81.073 117.854,71.330 127.130,68.436 130.871 C 59.790 142.050,55.431 159.862,57.975 173.615 C 58.866 178.429,60.255 183.843,61.045 185.576 C 62.204 188.120,64.079 192.893,64.115 193.389 C 64.132 193.622,64.367 193.898,64.637 194.002 C 64.907 194.105,65.030 194.350,64.909 194.545 C 64.789 194.739,64.867 194.899,65.084 194.899 C 65.300 194.899,65.379 195.057,65.259 195.251 C 65.140 195.444,65.207 195.602,65.408 195.602 C 65.609 195.602,65.871 195.992,65.991 196.468 C 66.110 196.943,66.428 197.515,66.697 197.739 C 66.966 197.962,67.094 198.295,66.981 198.478 C 66.390 199.433,70.190 205.461,76.321 213.295 C 79.646 217.543,86.132 223.978,90.646 227.506 C 92.473 228.934,93.633 229.853,96.922 232.477 C 97.750 233.137,103.687 237.046,104.551 237.499 C 105.071 237.772,107.129 238.883,109.125 239.970 C 111.120 241.056,114.653 242.781,116.974 243.804 C 119.296 244.827,122.067 246.102,123.131 246.638 C 125.437 247.799,143.137 255.761,143.413 255.761 C 143.519 255.761,144.104 255.988,144.714 256.265 C 145.323 256.543,147.168 257.383,148.813 258.132 C 150.457 258.881,153.069 260.037,154.617 260.702 C 156.165 261.366,159.094 262.720,161.126 263.710 C 163.157 264.700,166.007 266.023,167.458 266.649 C 168.909 267.276,171.260 268.332,172.683 268.997 C 174.105 269.662,176.242 270.604,177.432 271.090 C 178.622 271.577,179.912 272.122,180.299 272.301 C 201.480 282.121,207.329 282.211,214.267 272.823 C 215.125 271.662,215.923 270.633,216.040 270.536 C 216.952 269.784,217.030 268.791,216.251 267.836 C 215.805 267.289,214.592 265.655,213.554 264.204 C 212.517 262.753,211.536 261.513,211.375 261.448 C 211.214 261.384,211.082 261.180,211.082 260.996 C 211.082 260.725,205.954 253.772,203.114 250.190 C 200.993 247.515,199.194 245.143,195.599 240.281 C 193.381 237.282,191.485 234.749,191.385 234.653 C 188.866 232.216,178.012 209.867,178.012 207.118 C 178.012 206.856,177.719 206.326,177.361 205.942 C 177.003 205.557,176.385 204.221,175.989 202.973 C 175.592 201.725,174.994 199.833,174.660 198.769 C 174.281 197.559,174.023 195.449,173.974 193.140 C 173.930 191.108,173.772 188.082,173.622 186.416 C 173.430 184.282,173.467 183.313,173.746 183.141 C 173.964 183.006,174.131 182.549,174.118 182.125 C 174.094 181.378,174.083 181.376,173.761 182.058 C 173.541 182.523,173.486 181.340,173.597 178.569 C 173.689 176.263,173.917 174.282,174.102 174.167 C 174.288 174.053,174.860 172.298,175.374 170.269 C 180.902 148.455,195.331 135.294,217.219 132.103 C 237.602 129.131,256.649 137.447,267.578 154.090 C 268.785 155.928,270.164 157.799,270.643 158.248 C 271.573 159.120,273.703 159.668,273.703 159.036 C 273.703 158.831,273.821 158.689,273.967 158.721 C 274.112 158.752,275.022 158.419,275.989 157.980 C 278.149 157.000,286.420 154.241,288.186 153.911 L 289.476 153.670 289.769 150.626 C 291.088 136.899,287.751 117.673,283.156 112.526 C 282.601 111.904,282.146 111.217,282.146 110.999 C 282.146 110.782,281.639 109.821,281.020 108.864 C 280.401 107.907,279.931 106.992,279.975 106.830 C 280.145 106.207,278.546 104.134,277.896 104.134 C 277.524 104.134,277.221 103.985,277.221 103.804 C 277.221 103.622,276.746 102.954,276.165 102.318 C 275.097 101.149,274.759 100.357,275.531 100.834 C 276.403 101.373,274.358 98.952,272.227 96.922 C 271.008 95.761,270.476 95.325,271.043 95.954 C 271.611 96.583,271.918 97.098,271.727 97.098 C 271.263 97.098,269.065 94.816,269.301 94.580 C 269.402 94.479,269.128 94.094,268.692 93.724 L 267.898 93.052 268.568 93.843 C 268.937 94.279,269.095 94.633,268.920 94.630 C 268.583 94.624,262.555 89.948,261.931 89.208 C 261.342 88.510,258.301 86.748,254.688 85.010 C 244.776 80.243,232.686 78.175,220.756 79.204 M257.012 155.167 C 257.775 156.050,258.471 156.718,258.558 156.651 C 258.645 156.583,258.021 155.861,257.170 155.045 L 255.624 153.562 257.012 155.167 M174.044 179.536 C 173.623 180.606,173.724 181.506,174.177 180.728 C 174.377 180.383,174.487 179.829,174.420 179.496 C 174.308 178.944,174.276 178.948,174.044 179.536 " stroke="none" fill="#ec2c3b" fill-rule="evenodd"></path></g></svg>